<?xml version="1.0" encoding="UTF-8" standalone="no"?><!-- Generator: Gravit.io --><svg xmlns="http://www.w3.org/2000/svg" xmlns:xlink="http://www.w3.org/1999/xlink" style="isolation:isolate" viewBox="0 0 830 830" width="830pt" height="830pt"><defs><clipPath id="_clipPath_akt8BKWQZCsUslwrbEweWu4XjMgTFpR3"><rect width="830" height="830"/></clipPath></defs><g clip-path="url(#_clipPath_akt8BKWQZCsUslwrbEweWu4XjMgTFpR3)"><path d=" M 0 830.018 L 830 830.018 L 830 0.018 L 0 0.018 L 0 830.018 Z " fill="rgb(255,255,255)"/><path d=" M 0 0.018 L 830 0.018 L 830 830.018 L 0 830.018 L 0 0.018 Z  M 30 30.02 L 800 30.02 L 800 800.02 L 30 800.02 L 30 30.02 Z " fill-rule="evenodd" fill="rgb(0,0,0)"/><path d=" M 99.85 352.73 L 81.49 360.68 L 81.49 316.18 C 91.84 311.7 104.74 307.27 115.26 303.2 C 123.42 300.04 131.66 297.09 139.98 294.36 C 145.56 292.52 151.17 290.81 156.83 289.22 C 161.48 287.92 166.18 286.73 170.9 285.68 C 176.34 284.47 181.83 283.47 187.36 282.7 C 191.77 282.08 196.21 281.7 200.67 281.56 C 200.77 281.56 200.88 281.56 200.99 281.56 L 202.71 281.53 C 202.84 281.53 202.98 281.53 203.11 281.53 C 208.75 281.56 214.36 282.15 219.88 283.3 C 225.07 284.39 230.18 285.83 235.18 287.62 C 239.93 289.32 244.61 291.21 249.22 293.28 C 253.62 295.25 257.99 297.27 262.33 299.35 C 266.62 301.4 270.93 303.39 275.27 305.33 C 279.26 307.11 283.32 308.73 287.45 310.18 C 291.15 311.49 294.95 312.53 298.8 313.31 C 302.26 314.01 305.78 314.37 309.31 314.39 L 310.36 314.38 C 313.77 314.3 317.16 313.92 320.49 313.24 C 324.07 312.5 327.58 311.53 331.02 310.32 C 334.82 308.99 338.56 307.5 342.24 305.87 C 346.29 304.07 350.31 302.22 354.31 300.32 C 358.93 298.12 363.58 295.99 368.26 293.92 C 373.34 291.69 378.5 289.67 383.75 287.89 C 389.42 285.96 395.21 284.44 401.1 283.33 C 407.46 282.14 413.92 281.54 420.4 281.53 C 420.48 281.53 420.57 281.53 420.66 281.53 L 422.58 281.55 C 422.66 281.56 422.74 281.56 422.82 281.56 C 429.25 281.71 435.66 282.41 441.97 283.65 C 447.74 284.8 453.42 286.34 458.97 288.27 C 464.04 290.04 469.03 292.04 473.93 294.25 C 478.39 296.27 482.81 298.35 487.21 300.5 C 491.01 302.36 494.84 304.17 498.69 305.92 C 502.19 307.52 505.76 308.96 509.38 310.26 C 512.73 311.45 516.16 312.41 519.65 313.15 C 523.05 313.85 526.51 314.26 529.98 314.39 L 531.71 314.41 C 535.2 314.39 538.69 314.03 542.12 313.35 C 545.92 312.59 549.66 311.56 553.32 310.28 C 557.37 308.85 561.37 307.26 565.3 305.51 C 569.58 303.6 573.84 301.63 578.08 299.6 C 582.48 297.49 586.9 295.44 591.35 293.45 C 596.05 291.35 600.83 289.43 605.69 287.71 C 610.82 285.89 616.08 284.42 621.41 283.33 C 627.1 282.17 632.89 281.58 638.69 281.55 C 638.72 281.55 638.76 281.55 638.79 281.55 L 638.91 281.55 C 638.92 281.55 638.92 281.55 638.93 281.55 C 642.83 281.56 646.73 281.77 650.6 282.17 C 655.18 282.64 659.74 283.29 664.27 284.13 C 667.55 284.73 670.81 285.42 674.06 286.18 C 677.75 287.05 681.42 288 685.08 289.02 C 687.69 289.75 690.29 290.51 692.88 291.31 C 695.71 292.18 698.53 293.09 701.34 294.03 C 703.35 294.7 705.35 295.39 707.35 296.09 C 709.47 296.84 711.59 297.6 713.7 298.38 C 720.31 300.82 726.86 303.38 733.37 306.09 C 741.16 309.32 750.54 312.68 758.22 316.18 L 758.22 360.87 L 740.01 352.59 C 732.74 349.28 725.41 346.09 718.03 343.03 C 712.02 340.53 705.96 338.16 699.86 335.91 C 697.93 335.2 696 334.5 694.06 333.82 C 692.26 333.19 690.46 332.57 688.65 331.96 C 686.14 331.12 683.62 330.31 681.09 329.53 C 678.84 328.84 676.58 328.17 674.31 327.54 C 671.19 326.67 668.05 325.86 664.9 325.12 C 662.28 324.5 659.65 323.95 657.01 323.46 C 653.53 322.82 650.02 322.32 646.5 321.95 C 643.96 321.69 641.41 321.56 638.86 321.55 L 638.81 321.55 C 635.66 321.57 632.51 321.89 629.42 322.52 C 625.9 323.24 622.45 324.21 619.07 325.41 C 615.22 326.77 611.42 328.29 607.69 329.96 C 603.56 331.81 599.44 333.72 595.35 335.67 C 590.8 337.86 586.21 339.98 581.6 342.04 C 576.67 344.24 571.66 346.23 566.57 348.02 C 561.15 349.92 555.6 351.45 549.96 352.58 C 543.94 353.78 537.81 354.39 531.67 354.41 C 531.55 354.41 531.42 354.41 531.29 354.41 L 529.19 354.38 C 529.07 354.38 528.96 354.37 528.85 354.37 C 523.01 354.18 517.2 353.49 511.49 352.3 C 506.21 351.2 501.02 349.74 495.95 347.93 C 491.26 346.26 486.65 344.39 482.12 342.33 C 477.93 340.42 473.76 338.46 469.62 336.43 C 465.59 334.46 461.53 332.54 457.44 330.69 C 453.64 328.97 449.75 327.42 445.81 326.04 C 442.02 324.73 438.15 323.67 434.22 322.89 C 430.19 322.1 426.1 321.65 421.99 321.55 L 420.34 321.53 C 416.36 321.55 412.38 321.92 408.47 322.65 C 404.45 323.4 400.49 324.44 396.63 325.76 C 392.48 327.17 388.4 328.76 384.4 330.52 C 380.07 332.43 375.77 334.4 371.5 336.44 C 367.18 338.49 362.84 340.49 358.47 342.43 C 353.81 344.5 349.07 346.38 344.26 348.06 C 339.12 349.87 333.87 351.32 328.53 352.42 C 322.81 353.59 316.99 354.25 311.14 354.38 C 311.06 354.38 310.98 354.38 310.9 354.38 L 309.56 354.39 C 309.46 354.39 309.37 354.39 309.28 354.39 C 303.1 354.37 296.94 353.74 290.89 352.52 C 285.21 351.37 279.62 349.83 274.16 347.91 C 269.01 346.1 263.95 344.08 258.97 341.86 C 254.31 339.78 249.67 337.63 245.07 335.43 C 241.02 333.5 236.95 331.61 232.86 329.78 C 229.19 328.13 225.46 326.63 221.68 325.28 C 218.42 324.11 215.08 323.16 211.69 322.45 C 208.87 321.86 205.99 321.55 203.1 321.53 L 201.77 321.55 C 198.8 321.65 195.85 321.9 192.91 322.31 C 188.44 322.94 184 323.74 179.6 324.73 C 175.59 325.62 171.6 326.62 167.65 327.73 C 162.56 329.16 157.5 330.7 152.48 332.36 C 144.81 334.88 137.22 337.59 129.69 340.5 C 119.67 344.38 109.71 348.46 99.85 352.73 Z " fill="rgb(0,0,0)"/><path d=" M 99.85 451.185 L 81.49 459.135 L 81.49 414.635 C 91.84 410.155 104.74 405.725 115.26 401.655 C 123.42 398.495 131.66 395.545 139.98 392.815 C 145.56 390.975 151.17 389.265 156.83 387.675 C 161.48 386.375 166.18 385.185 170.9 384.135 C 176.34 382.925 181.83 381.925 187.36 381.155 C 191.77 380.535 196.21 380.155 200.67 380.015 C 200.77 380.015 200.88 380.015 200.99 380.015 L 202.71 379.985 C 202.84 379.985 202.98 379.985 203.11 379.985 C 208.75 380.015 214.36 380.605 219.88 381.755 C 225.07 382.845 230.18 384.285 235.18 386.075 C 239.93 387.775 244.61 389.665 249.22 391.735 C 253.62 393.705 257.99 395.725 262.33 397.805 C 266.62 399.855 270.93 401.845 275.27 403.785 C 279.26 405.565 283.32 407.185 287.45 408.635 C 291.15 409.945 294.95 410.985 298.8 411.765 C 302.26 412.465 305.78 412.825 309.31 412.845 L 310.36 412.835 C 313.77 412.755 317.16 412.375 320.49 411.695 C 324.07 410.955 327.58 409.985 331.02 408.775 C 334.82 407.445 338.56 405.955 342.24 404.325 C 346.29 402.525 350.31 400.675 354.31 398.775 C 358.93 396.575 363.58 394.445 368.26 392.375 C 373.34 390.145 378.5 388.125 383.75 386.345 C 389.42 384.415 395.21 382.895 401.1 381.785 C 407.46 380.595 413.92 379.995 420.4 379.985 C 420.48 379.985 420.57 379.985 420.66 379.985 L 422.58 380.005 C 422.66 380.015 422.74 380.015 422.82 380.015 C 429.25 380.165 435.66 380.865 441.97 382.105 C 447.74 383.255 453.42 384.795 458.97 386.725 C 464.04 388.495 469.03 390.495 473.93 392.705 C 478.39 394.725 482.81 396.805 487.21 398.955 C 491.01 400.815 494.84 402.625 498.69 404.375 C 502.19 405.975 505.76 407.415 509.38 408.715 C 512.73 409.905 516.16 410.865 519.65 411.605 C 523.05 412.305 526.51 412.715 529.98 412.845 L 531.71 412.865 C 535.2 412.845 538.69 412.485 542.12 411.805 C 545.92 411.045 549.66 410.015 553.32 408.735 C 557.37 407.305 561.37 405.715 565.3 403.965 C 569.58 402.055 573.84 400.085 578.08 398.055 C 582.48 395.945 586.9 393.895 591.35 391.905 C 596.05 389.805 600.83 387.885 605.69 386.165 C 610.82 384.345 616.08 382.875 621.41 381.785 C 627.1 380.625 632.89 380.035 638.69 380.005 C 638.72 380.005 638.76 380.005 638.79 380.005 L 638.91 380.005 C 638.92 380.005 638.92 380.005 638.93 380.005 C 642.83 380.015 646.73 380.225 650.6 380.625 C 655.18 381.095 659.74 381.745 664.27 382.585 C 667.55 383.185 670.81 383.875 674.06 384.635 C 677.75 385.505 681.42 386.455 685.08 387.475 C 687.69 388.205 690.29 388.965 692.88 389.765 C 695.71 390.635 698.53 391.545 701.34 392.485 C 703.35 393.155 705.35 393.845 707.35 394.545 C 709.47 395.295 711.59 396.055 713.7 396.835 C 720.31 399.275 726.86 401.835 733.37 404.545 C 741.16 407.775 750.54 411.135 758.22 414.635 L 758.22 459.325 L 740.01 451.045 C 732.74 447.735 725.41 444.545 718.03 441.485 C 712.02 438.985 705.96 436.615 699.86 434.365 C 697.93 433.655 696 432.955 694.06 432.275 C 692.26 431.645 690.46 431.025 688.65 430.415 C 686.14 429.575 683.62 428.765 681.09 427.985 C 678.84 427.295 676.58 426.625 674.31 425.995 C 671.19 425.125 668.05 424.315 664.9 423.575 C 662.28 422.955 659.65 422.405 657.01 421.915 C 653.53 421.275 650.02 420.775 646.5 420.405 C 643.96 420.145 641.41 420.015 638.86 420.005 L 638.81 420.005 C 635.66 420.025 632.51 420.345 629.42 420.975 C 625.9 421.695 622.45 422.665 619.07 423.865 C 615.22 425.225 611.42 426.745 607.69 428.415 C 603.56 430.265 599.44 432.175 595.35 434.125 C 590.8 436.315 586.21 438.435 581.6 440.495 C 576.67 442.695 571.66 444.685 566.57 446.475 C 561.15 448.375 555.6 449.905 549.96 451.035 C 543.94 452.235 537.81 452.845 531.67 452.865 C 531.55 452.865 531.42 452.865 531.29 452.865 L 529.19 452.835 C 529.07 452.835 528.96 452.825 528.85 452.825 C 523.01 452.635 517.2 451.945 511.49 450.755 C 506.21 449.655 501.02 448.195 495.95 446.385 C 491.26 444.715 486.65 442.845 482.12 440.785 C 477.93 438.875 473.76 436.915 469.62 434.885 C 465.59 432.915 461.53 430.995 457.44 429.145 C 453.64 427.425 449.75 425.875 445.81 424.495 C 442.02 423.185 438.15 422.125 434.22 421.345 C 430.19 420.555 426.1 420.105 421.99 420.005 L 420.34 419.985 C 416.36 420.005 412.38 420.375 408.47 421.105 C 404.45 421.855 400.49 422.895 396.63 424.215 C 392.48 425.625 388.4 427.215 384.4 428.975 C 380.07 430.885 375.77 432.855 371.5 434.895 C 367.18 436.945 362.84 438.945 358.47 440.885 C 353.81 442.955 349.07 444.835 344.26 446.515 C 339.12 448.325 333.87 449.775 328.53 450.875 C 322.81 452.045 316.99 452.705 311.14 452.835 C 311.06 452.835 310.98 452.835 310.9 452.835 L 309.56 452.845 C 309.46 452.845 309.37 452.845 309.28 452.845 C 303.1 452.825 296.94 452.195 290.89 450.975 C 285.21 449.825 279.62 448.285 274.16 446.365 C 269.01 444.555 263.95 442.535 258.97 440.315 C 254.31 438.235 249.67 436.085 245.07 433.885 C 241.02 431.955 236.95 430.065 232.86 428.235 C 229.19 426.585 225.46 425.085 221.68 423.735 C 218.42 422.565 215.08 421.615 211.69 420.905 C 208.87 420.315 205.99 420.005 203.1 419.985 L 201.77 420.005 C 198.8 420.105 195.85 420.355 192.91 420.765 C 188.44 421.395 184 422.195 179.6 423.185 C 175.59 424.075 171.6 425.075 167.65 426.185 C 162.56 427.615 157.5 429.155 152.48 430.815 C 144.81 433.335 137.22 436.045 129.69 438.955 C 119.67 442.835 109.71 446.915 99.85 451.185 Z " fill="rgb(0,0,0)"/><path d=" M 99.85 549.62 L 81.49 557.57 L 81.49 513.07 C 91.84 508.59 104.74 504.16 115.26 500.09 C 123.42 496.93 131.66 493.98 139.98 491.25 C 145.56 489.41 151.17 487.7 156.83 486.11 C 161.48 484.81 166.18 483.62 170.9 482.57 C 176.34 481.36 181.83 480.36 187.36 479.59 C 191.77 478.97 196.21 478.59 200.67 478.45 C 200.77 478.45 200.88 478.45 200.99 478.45 L 202.71 478.42 C 202.84 478.42 202.98 478.42 203.11 478.42 C 208.75 478.45 214.36 479.04 219.88 480.19 C 225.07 481.28 230.18 482.72 235.18 484.51 C 239.93 486.21 244.61 488.1 249.22 490.17 C 253.62 492.14 257.99 494.16 262.33 496.24 C 266.62 498.29 270.93 500.28 275.27 502.22 C 279.26 504 283.32 505.62 287.45 507.07 C 291.15 508.38 294.95 509.42 298.8 510.2 C 302.26 510.9 305.78 511.26 309.31 511.28 L 310.36 511.27 C 313.77 511.19 317.16 510.81 320.49 510.13 C 324.07 509.39 327.58 508.42 331.02 507.21 C 334.82 505.88 338.56 504.39 342.24 502.76 C 346.29 500.96 350.31 499.11 354.31 497.21 C 358.93 495.01 363.58 492.88 368.26 490.81 C 373.34 488.58 378.5 486.56 383.75 484.78 C 389.42 482.85 395.21 481.33 401.1 480.22 C 407.46 479.03 413.92 478.43 420.4 478.42 C 420.48 478.42 420.57 478.42 420.66 478.42 L 422.58 478.44 C 422.66 478.45 422.74 478.45 422.82 478.45 C 429.25 478.6 435.66 479.3 441.97 480.54 C 447.74 481.69 453.42 483.23 458.97 485.16 C 464.04 486.93 469.03 488.93 473.93 491.14 C 478.39 493.16 482.81 495.24 487.21 497.39 C 491.01 499.25 494.84 501.06 498.69 502.81 C 502.19 504.41 505.76 505.85 509.38 507.15 C 512.73 508.34 516.16 509.3 519.65 510.04 C 523.05 510.74 526.51 511.15 529.98 511.28 L 531.71 511.3 C 535.2 511.28 538.69 510.92 542.12 510.24 C 545.92 509.48 549.66 508.45 553.32 507.17 C 557.37 505.74 561.37 504.15 565.3 502.4 C 569.58 500.49 573.84 498.52 578.08 496.49 C 582.48 494.38 586.9 492.33 591.35 490.34 C 596.05 488.24 600.83 486.32 605.69 484.6 C 610.82 482.78 616.08 481.31 621.41 480.22 C 627.1 479.06 632.89 478.47 638.69 478.44 C 638.72 478.44 638.76 478.44 638.79 478.44 L 638.91 478.44 C 638.92 478.44 638.92 478.44 638.93 478.44 C 642.83 478.45 646.73 478.66 650.6 479.06 C 655.18 479.53 659.74 480.18 664.27 481.02 C 667.55 481.62 670.81 482.31 674.06 483.07 C 677.75 483.94 681.42 484.89 685.08 485.91 C 687.69 486.64 690.29 487.4 692.88 488.2 C 695.71 489.07 698.53 489.98 701.34 490.92 C 703.35 491.59 705.35 492.28 707.35 492.98 C 709.47 493.73 711.59 494.49 713.7 495.27 C 720.31 497.71 726.86 500.27 733.37 502.98 C 741.16 506.21 750.54 509.57 758.22 513.07 L 758.22 557.76 L 740.01 549.48 C 732.74 546.17 725.41 542.98 718.03 539.92 C 712.02 537.42 705.96 535.05 699.86 532.8 C 697.93 532.09 696 531.39 694.06 530.71 C 692.26 530.08 690.46 529.46 688.65 528.85 C 686.14 528.01 683.62 527.2 681.09 526.42 C 678.84 525.73 676.58 525.06 674.31 524.43 C 671.19 523.56 668.05 522.75 664.9 522.01 C 662.28 521.39 659.65 520.84 657.01 520.35 C 653.53 519.71 650.02 519.21 646.5 518.84 C 643.96 518.58 641.41 518.45 638.86 518.44 L 638.81 518.44 C 635.66 518.46 632.51 518.78 629.42 519.41 C 625.9 520.13 622.45 521.1 619.07 522.3 C 615.22 523.66 611.42 525.18 607.69 526.85 C 603.56 528.7 599.44 530.61 595.35 532.56 C 590.8 534.75 586.21 536.87 581.6 538.93 C 576.67 541.13 571.66 543.12 566.57 544.91 C 561.15 546.81 555.6 548.34 549.96 549.47 C 543.94 550.67 537.81 551.28 531.67 551.3 C 531.55 551.3 531.42 551.3 531.29 551.3 L 529.19 551.27 C 529.07 551.27 528.96 551.26 528.85 551.26 C 523.01 551.07 517.2 550.38 511.49 549.19 C 506.21 548.09 501.02 546.63 495.95 544.82 C 491.26 543.15 486.65 541.28 482.12 539.22 C 477.93 537.31 473.76 535.35 469.62 533.32 C 465.59 531.35 461.53 529.43 457.44 527.58 C 453.64 525.86 449.75 524.31 445.81 522.93 C 442.02 521.62 438.15 520.56 434.22 519.78 C 430.19 518.99 426.1 518.54 421.99 518.44 L 420.34 518.42 C 416.36 518.44 412.38 518.81 408.47 519.54 C 404.45 520.29 400.49 521.33 396.63 522.65 C 392.48 524.06 388.4 525.65 384.4 527.41 C 380.07 529.32 375.77 531.29 371.5 533.33 C 367.18 535.38 362.84 537.38 358.47 539.32 C 353.81 541.39 349.07 543.27 344.26 544.95 C 339.12 546.76 333.87 548.21 328.53 549.31 C 322.81 550.48 316.99 551.14 311.14 551.27 C 311.06 551.27 310.98 551.27 310.9 551.27 L 309.56 551.28 C 309.46 551.28 309.37 551.28 309.28 551.28 C 303.1 551.26 296.94 550.63 290.89 549.41 C 285.21 548.26 279.62 546.72 274.16 544.8 C 269.01 542.99 263.95 540.97 258.97 538.75 C 254.31 536.67 249.67 534.52 245.07 532.32 C 241.02 530.39 236.95 528.5 232.86 526.67 C 229.19 525.02 225.46 523.52 221.68 522.17 C 218.42 521 215.08 520.05 211.69 519.34 C 208.87 518.75 205.99 518.44 203.1 518.42 L 201.77 518.44 C 198.8 518.54 195.85 518.79 192.91 519.2 C 188.44 519.83 184 520.63 179.6 521.62 C 175.59 522.51 171.6 523.51 167.65 524.62 C 162.56 526.05 157.5 527.59 152.48 529.25 C 144.81 531.77 137.22 534.48 129.69 537.39 C 119.67 541.27 109.71 545.35 99.85 549.62 Z " fill="rgb(0,0,0)"/></g></svg>